<svg width="553" height="552" xmlns="http://www.w3.org/2000/svg" xmlns:xlink="http://www.w3.org/1999/xlink" xml:space="preserve" overflow="hidden"><g transform="translate(-656 -94)"><path d="M225.4 167.9C230 163.3 232.875 156.975 232.875 150.075 232.875 143.175 230 136.85 225.4 132.25L146.05 53.475C141.45 48.875 135.125 46 128.8 46 122.475 46 115.575 48.875 110.975 53.475L102.35 62.1 216.775 176.525 225.4 167.9Z" fill="#FFFFFF" transform="matrix(1.00181 0 0 1 656 94)"/><path d="M340.975 370.875C338.675 373.175 335.225 374.325 332.35 374.325 329.475 374.325 326.025 373.175 323.725 370.875L181.125 228.85C178.825 226.55 177.675 223.1 177.675 220.225 177.675 217.35 178.825 213.9 181.125 211.6L198.95 194.35 84.525 79.925C77.05 87.4 70.15 94.3 65.55 98.9 54.05 109.825 47.15 124.2 46.575 139.725 44.85 165.6 51.175 190.325 59.8 214.475 69 235.75 81.075 255.875 94.3 274.85 141.45 345.575 200.675 407.1 269.675 455.975 281.175 464.6 293.25 472.075 305.9 478.975 334.65 493.35 365.125 503.7 397.9 506 419.75 507.725 441.6 499.1 456.55 483L472.075 467.475 358.225 353.05 340.975 370.875Z" fill="#FFFFFF" transform="matrix(1.00181 0 0 1 656 94)"/><path d="M498.525 405.95 419.175 326.6C414.575 322 408.25 319.125 401.35 319.125 394.45 319.125 388.125 322 383.525 326.6L374.9 335.8 489.325 450.225 497.95 441.6C502.55 437 505.425 430.675 505.425 423.775 505.425 416.875 503.125 410.55 498.525 405.95Z" fill="#FFFFFF" transform="matrix(1.00181 0 0 1 656 94)"/></g></svg>